<svg width="1920" height="5364" viewBox="0 0 1920 5364" fill="none" xmlns="http://www.w3.org/2000/svg">
<path fill-rule="evenodd" clip-rule="evenodd" d="M126.817 286.677C-6.90548 274.04 -69.2109 158.003 -118.679 68.1354C-154.19 3.62459 -123.021 -58.3868 -98.1052 -121.931C-71.0958 -190.813 -58.515 -266.587 27.0029 -303.4C143.287 -353.458 291.922 -394.103 420.528 -345.191C557.206 -293.21 638.767 -177.529 634.169 -72.4818C630.18 18.6656 488.499 54.7355 400.29 117.179C310.231 180.933 260.033 299.266 126.817 286.677Z" stroke="#E1E1E1"/>
<path fill-rule="evenodd" clip-rule="evenodd" d="M-108.829 5740.03C-328.816 5719.58 -429.354 5511.12 -509.218 5349.69C-566.548 5233.81 -514.116 5121.26 -471.953 5006.05C-426.249 4881.16 -404.182 4744.08 -262.698 4676.07C-70.3129 4583.59 175.179 4507.54 386.093 4593.59C610.247 4685.04 742.501 4892.52 733.06 5082.32C724.867 5247.01 423.892 5235.34 277.521 5349.69C128.078 5466.44 110.323 5760.39 -108.829 5740.03Z" stroke="#E1E1E1"/>
<path fill-rule="evenodd" clip-rule="evenodd" d="M7.27675 4175.53C-216.79 4238.65 -381.434 4124.14 -510.919 4036.18C-603.868 3973.04 -587.169 3873.46 -581.462 3775.59C-575.276 3669.51 -596.289 3563.01 -477.55 3463.99C-316.092 3329.33 -96.9514 3187.71 138.645 3175.04C389.03 3161.56 584.749 3264.14 634.737 3404.13C678.11 3525.6 467.76 3657.1 358.669 3791.21C247.29 3928.14 230.493 4112.65 7.27675 4175.53Z" stroke="#E1E1E1"/>
<path fill-rule="evenodd" clip-rule="evenodd" d="M-108.829 2716.03C-328.816 2695.58 -429.354 2487.12 -509.218 2325.69C-566.548 2209.81 -514.116 2097.26 -471.953 1982.05C-426.249 1857.16 -404.182 1720.08 -262.698 1652.07C-70.3129 1559.59 175.179 1483.54 386.093 1569.59C610.247 1661.04 742.501 1868.51 733.06 2058.32C724.867 2223.01 423.892 2211.34 277.521 2325.69C128.078 2442.44 110.323 2736.39 -108.829 2716.03Z" stroke="#E1E1E1"/>
<path fill-rule="evenodd" clip-rule="evenodd" d="M7.27676 1401.53C-216.79 1464.65 -381.434 1350.14 -510.919 1262.18C-603.868 1199.04 -587.169 1099.46 -581.462 1001.59C-575.276 895.509 -596.289 789.013 -477.55 689.987C-316.092 555.334 -96.9514 413.715 138.645 401.036C389.03 387.561 584.749 490.138 634.737 630.128C678.11 751.595 467.76 883.096 358.669 1017.21C247.29 1154.14 230.493 1338.65 7.27676 1401.53Z" stroke="#E1E1E1"/>
<path fill-rule="evenodd" clip-rule="evenodd" d="M1741.07 1717.04C1973.84 1714.06 2103.23 1867.28 2205.54 1985.76C2278.98 2070.81 2237.08 2162.68 2206.23 2255.73C2172.8 2356.6 2165.54 2464.9 2025.21 2529.82C1834.41 2618.1 1586.08 2698.18 1355.23 2649.45C1109.89 2597.66 947.387 2447.92 935.334 2299.76C924.877 2171.21 1162.09 2098.63 1302.18 1997.32C1445.2 1893.88 1509.18 1720.01 1741.07 1717.04Z" stroke="#E1E1E1"/>
<path fill-rule="evenodd" clip-rule="evenodd" d="M1741.07 3539.04C1973.84 3536.06 2103.23 3689.28 2205.54 3807.76C2278.98 3892.81 2237.08 3984.68 2206.23 4077.73C2172.8 4178.6 2165.54 4286.9 2025.21 4351.82C1834.41 4440.1 1586.08 4520.18 1355.23 4471.45C1109.89 4419.66 947.387 4269.92 935.334 4121.76C924.877 3993.21 1162.09 3920.63 1302.18 3819.32C1445.2 3715.88 1509.18 3542.01 1741.07 3539.04Z" stroke="#E1E1E1"/>
<circle cx="87" cy="3180" r="3" fill="#EB1D76"/>
<circle cx="259" cy="3956" r="5" fill="#F0A921"/>
<circle cx="87" cy="406" r="3" fill="#EB1D76"/>
<circle cx="455" cy="916" r="5" fill="#F0A921"/>
<circle cx="122" cy="2553" r="3" fill="#F0A921"/>
<circle cx="1883" cy="1736" r="5" fill="#F0A921"/>
<circle cx="1883" cy="3558" r="5" fill="#F0A921"/>
<circle cx="1800" cy="2617" r="5" fill="#F85FA1"/>
<circle cx="567" cy="2208" r="5" fill="#F85FA1"/>
<circle cx="150" cy="288" r="3" fill="#F0A921"/>
<circle cx="25" cy="1550" r="2" fill="#F0A921"/>
<circle cx="1800" cy="4439" r="5" fill="#F85FA1"/>
<circle cx="450" cy="86" r="2" fill="#EB1D76"/>
</svg>
