<svg width="989" height="1081" viewBox="0 0 989 1081" fill="none" xmlns="http://www.w3.org/2000/svg">
<rect y="-15.0986" width="1100" height="1080" fill="#FFEDF4" fill-opacity="0.75"/>
<path fill-rule="evenodd" clip-rule="evenodd" d="M1065.64 -330.237C915.245 -484.526 730.28 -468.935 585.785 -458.352C482.059 -450.755 449.359 -363.205 408.644 -282.121C364.509 -194.224 298.381 -118.586 347.73 15.7403C414.833 198.392 524.949 413.322 707.926 532.514C902.389 659.189 1106.74 667.542 1211.59 578.465C1302.57 501.174 1194.82 298.423 1169.44 140.435C1143.53 -20.8671 1215.46 -176.533 1065.64 -330.237Z" stroke="#FFB7B7"/>
<path fill-rule="evenodd" clip-rule="evenodd" d="M1154.97 -128.771C1117.37 -168.108 1051.33 -144.846 999.903 -127.231C962.983 -114.586 943.138 -80.8899 921.12 -48.6778C897.253 -13.7595 866.894 19.0013 871.167 61.1102C876.979 118.368 894.686 182.743 947.039 206.696C1002.68 232.153 1073.17 215.376 1118.33 174.196C1157.52 138.464 1139.46 78.1099 1145.83 25.436C1152.34 -28.3431 1192.43 -89.5824 1154.97 -128.771Z" fill="#FFE7ED"/>
<path fill-rule="evenodd" clip-rule="evenodd" d="M75.148 799.658C76.0702 832.548 105.814 849.511 128.827 862.946C145.347 872.59 162.419 865.891 179.785 860.743C215.838 808.448 164.953 796.646 176.311 776.28C191.756 748.588 240.926 802.253 248.668 737.234C237.329 703.035 208.032 681.368 179.992 680.929C155.662 680.549 143.477 714.66 125.248 735.302C106.638 756.378 74.2293 766.893 75.148 799.658Z" fill="#FFEDF1"/>
<path fill-rule="evenodd" clip-rule="evenodd" d="M0 884.901L25.7708 909.561C51.5417 933.795 103.083 983.114 154.625 983.114C206.167 983.114 257.708 933.795 309.25 938.047C360.792 942.298 412.333 999.27 463.875 1027.76C515.417 1056.24 566.958 1056.24 618.5 1040.09C670.042 1023.93 721.583 991.192 773.125 974.611C824.667 958.455 876.208 958.455 927.75 942.298C979.292 925.717 1030.83 892.979 1082.38 892.979C1133.92 892.979 1185.46 925.717 1211.23 942.298L1237 958.455V1080.9H1211.23C1185.46 1080.9 1133.92 1080.9 1082.38 1080.9C1030.83 1080.9 979.292 1080.9 927.75 1080.9C876.208 1080.9 824.667 1080.9 773.125 1080.9C721.583 1080.9 670.042 1080.9 618.5 1080.9C566.958 1080.9 515.417 1080.9 463.875 1080.9C412.333 1080.9 360.792 1080.9 309.25 1080.9C257.708 1080.9 206.167 1080.9 154.625 1080.9C103.083 1080.9 51.5417 1080.9 25.7708 1080.9H0V884.901Z" fill="white"/>
</svg>
